<?xml version="1.0" standalone="no"?>
<!DOCTYPE svg PUBLIC "-//W3C//DTD SVG 20010904//EN"
 "http://www.w3.org/TR/2001/REC-SVG-20010904/DTD/svg10.dtd">
<svg version="1.0" xmlns="http://www.w3.org/2000/svg"
 width="324.000000pt" height="244.000000pt" viewBox="0 0 324.000000 244.000000"
 preserveAspectRatio="xMidYMid meet">
<metadata>
Created by potrace 1.16, written by Peter Selinger 2001-2019
</metadata>
<g transform="translate(0.000000,244.000000) scale(0.100000,-0.100000)"
fill="#000000" stroke="none">
<path d="M1511 2339 c-78 -14 -185 -53 -248 -91 -58 -35 -183 -143 -183 -159
0 -5 230 -9 551 -9 l551 0 -14 23 c-50 76 -230 189 -353 221 -75 20 -233 28
-304 15z"/>
<path d="M1007 1978 c-30 -59 -57 -133 -57 -154 0 -12 56 -14 324 -14 l324 0
7 88 c3 48 8 97 11 110 l4 22 -293 0 -294 0 -26 -52z"/>
<path d="M1635 1953 c3 -43 8 -93 11 -110 l5 -33 331 0 331 0 -7 33 c-4 17
-23 67 -43 110 l-36 77 -299 0 -300 0 7 -77z"/>
<path d="M930 1650 l0 -100 324 0 323 0 7 77 c3 42 6 87 6 100 l0 23 -330 0
-330 0 0 -100z"/>
<path d="M1656 1693 c3 -32 7 -77 10 -101 l5 -42 327 2 327 3 3 98 3 97 -340
0 -340 0 5 -57z"/>
<path d="M950 1485 c0 -22 40 -125 67 -172 l25 -43 253 0 c140 0 256 3 258 8
3 4 8 55 12 115 l7 107 -311 0 c-266 0 -311 -2 -311 -15z"/>
<path d="M1674 1473 c2 -16 8 -67 11 -115 l7 -88 264 0 265 0 39 83 c22 45 43
97 46 115 l7 32 -323 0 -322 0 6 -27z"/>
<path d="M1090 1211 c0 -15 115 -114 174 -150 63 -38 160 -75 222 -85 l42 -7
6 68 c3 37 9 94 12 126 l6 57 -231 0 c-133 0 -231 -4 -231 -9z"/>
<path d="M1705 1103 c4 -65 9 -122 12 -126 17 -28 217 40 309 104 62 43 144
118 144 131 0 4 -106 8 -236 8 l-236 0 7 -117z"/>
<path d="M1013 987 l-12 -25 72 -7 c180 -16 332 -53 387 -94 23 -16 41 -61 25
-61 -4 0 -39 15 -78 34 -78 38 -223 71 -352 82 -80 6 -81 6 -92 -19 -12 -25
-11 -26 20 -31 442 -67 497 -87 497 -176 0 -17 -5 -17 -70 10 -86 36 -246 76
-360 90 -47 6 -101 13 -121 15 l-37 5 -52 -91 c-28 -50 -50 -93 -48 -95 2 -1
64 -12 137 -23 271 -42 528 -115 634 -181 59 -37 67 -37 116 -4 100 66 331
134 614 180 l167 28 -37 65 c-74 132 -63 121 -113 115 -207 -24 -380 -62 -483
-108 l-57 -25 0 30 c0 18 9 39 24 54 38 37 95 51 464 111 36 5 38 11 18 39
-13 18 -20 19 -119 7 -134 -14 -256 -45 -330 -83 -69 -35 -69 -35 -65 -7 8 59
165 110 411 133 67 7 77 14 58 44 -8 12 -27 12 -127 2 -221 -24 -362 -74 -399
-143 -18 -33 -18 -41 -6 -70 26 -63 25 -114 -3 -172 -14 -29 -35 -61 -46 -71
-20 -18 -20 -17 -20 27 0 32 5 48 16 52 10 4 14 15 12 33 -4 36 -51 46 -67 14
-11 -20 -5 -51 10 -51 5 0 9 -21 9 -46 l0 -47 -19 24 c-10 13 -28 44 -41 68
-23 46 -23 53 -4 189 6 40 3 47 -27 78 -18 19 -58 43 -88 55 -69 26 -218 55
-326 64 -79 7 -81 7 -92 -18z m56 -242 c142 -21 304 -60 368 -90 55 -25 94
-69 127 -144 25 -54 13 -68 -34 -41 -144 84 -307 135 -532 166 -67 9 -125 18
-126 20 -2 1 8 25 24 53 31 58 24 57 173 36z m1276 -26 c43 -67 44 -66 -37
-73 -201 -19 -447 -89 -563 -159 -71 -43 -85 -37 -61 26 24 63 77 121 135 146
62 26 224 65 351 85 147 22 146 22 175 -25z"/>
<path d="M220 206 c0 -76 2 -86 22 -100 31 -22 74 -20 98 4 17 17 20 33 20
100 0 73 -2 80 -20 80 -17 0 -19 -8 -22 -77 -3 -75 -4 -78 -28 -78 -28 0 -38
23 -39 103 -1 39 -5 52 -16 52 -12 0 -15 -16 -15 -84z"/>
<path d="M390 190 c0 -93 1 -100 20 -100 18 0 20 7 20 58 l0 57 38 -57 c21
-34 44 -58 55 -58 15 0 17 11 17 100 0 93 -1 100 -20 100 -18 0 -20 -7 -20
-57 l0 -57 -36 57 c-23 37 -42 57 -55 57 -17 0 -19 -8 -19 -100z"/>
<path d="M632 278 c3 -7 18 -53 34 -101 24 -74 32 -87 48 -85 15 2 27 25 52
101 l33 97 -23 0 c-18 0 -26 -10 -42 -62 l-20 -63 -20 60 c-16 48 -25 61 -44
63 -16 3 -21 0 -18 -10z"/>
<path d="M820 190 l0 -100 65 0 c58 0 65 2 65 20 0 17 -7 20 -50 20 -47 0 -50
2 -50 25 0 20 5 25 25 25 18 0 25 5 25 20 0 15 -7 20 -25 20 -16 0 -25 6 -25
15 0 11 12 15 45 15 38 0 45 3 45 20 0 18 -7 20 -60 20 l-60 0 0 -100z"/>
<path d="M970 190 c0 -93 1 -100 20 -100 17 0 20 7 20 40 0 22 4 40 10 40 5 0
19 -18 30 -40 13 -26 27 -40 40 -40 24 0 25 11 4 51 -14 28 -14 32 0 48 9 10
16 29 16 44 0 41 -24 57 -86 57 l-54 0 0 -100z"/>
<path d="M1146 274 c-27 -26 -20 -63 15 -82 58 -32 65 -39 52 -53 -10 -10 -18
-10 -39 0 -20 9 -30 9 -40 0 -37 -31 58 -63 101 -35 19 12 25 25 25 52 0 32
-4 37 -45 55 -25 11 -45 24 -45 28 0 14 25 20 41 10 8 -5 20 -9 27 -9 19 0 27
31 11 41 -23 14 -86 10 -103 -7z"/>
<path d="M1545 278 c-2 -7 -18 -50 -35 -96 -16 -46 -30 -85 -30 -88 0 -2 9 -4
20 -4 13 0 24 10 30 25 7 19 17 25 39 25 22 0 30 -5 35 -25 4 -16 13 -25 26
-25 11 0 20 3 20 7 0 5 -14 50 -31 100 -25 75 -34 93 -50 93 -11 0 -22 -6 -24
-12z"/>
<path d="M1674 265 c-23 -35 -7 -69 40 -85 25 -8 36 -18 36 -31 0 -21 -29 -26
-47 -8 -14 14 -43 5 -43 -14 0 -17 42 -37 75 -37 27 0 65 32 65 54 0 30 -14
48 -52 67 -22 11 -37 25 -35 32 5 13 9 13 45 2 16 -4 24 -2 29 10 8 22 -13 35
-59 35 -29 0 -41 -6 -54 -25z"/>
<path d="M2040 190 l0 -100 65 0 c58 0 65 2 65 20 0 17 -7 20 -45 20 -41 0
-45 2 -45 25 0 20 5 25 25 25 18 0 25 5 25 20 0 15 -7 20 -25 20 -16 0 -25 6
-25 15 0 11 12 15 45 15 38 0 45 3 45 20 0 18 -7 20 -65 20 l-65 0 0 -100z"/>
<path d="M2200 190 c0 -93 1 -100 20 -100 17 0 20 7 20 40 0 51 14 51 40 0 13
-26 27 -40 40 -40 24 0 25 11 4 51 -14 28 -14 32 0 48 9 10 16 29 16 44 0 41
-24 57 -86 57 l-54 0 0 -100z"/>
<path d="M2370 189 l0 -102 52 5 c59 6 94 37 83 72 -4 12 -8 40 -9 64 -1 51
-14 62 -78 62 l-48 0 0 -101z"/>
<path d="M2530 210 c0 -91 17 -120 70 -120 53 0 70 29 70 120 0 73 -2 80 -20
80 -17 0 -19 -8 -22 -77 -3 -76 -4 -78 -28 -78 -24 0 -25 2 -28 78 -3 69 -5
77 -22 77 -18 0 -20 -7 -20 -80z"/>
<path d="M2700 190 c0 -93 1 -100 20 -100 15 0 20 7 20 28 0 16 6 36 13 46 11
15 15 12 35 -28 15 -32 28 -46 42 -46 27 0 25 16 -9 74 l-29 50 29 35 c29 36
29 36 7 39 -16 3 -32 -7 -55 -35 l-33 -38 0 38 c0 30 -4 37 -20 37 -19 0 -20
-7 -20 -100z"/>
<path d="M2891 205 c-17 -47 -31 -93 -31 -101 0 -25 37 -16 44 11 5 20 13 25
36 25 23 0 31 -5 36 -25 4 -16 13 -25 25 -25 25 0 24 11 -9 110 -23 66 -33 86
-49 88 -18 3 -25 -10 -52 -83z"/>
</g>
</svg>
